<svg width="456" height="182" xmlns="http://www.w3.org/2000/svg">
  <text x="0" y="42.0" font-size="12" fill="black">Mon</text>
  <text x="0" y="64.0" font-size="12" fill="black">Tue</text>
  <text x="0" y="86.0" font-size="12" fill="black">Wed</text>
  <text x="0" y="108.0" font-size="12" fill="black">Thu</text>
  <text x="0" y="130.0" font-size="12" fill="black">Fri</text>
  <text x="0" y="152.0" font-size="12" fill="black">Sat</text>
  <text x="0" y="174.0" font-size="12" fill="black">Sun</text>
  <rect x="28" y="28" width="20" height="20" fill="#1D2320">
    <title>2026-04-06: 0 problem(s)</title>
  </rect>
  <rect x="28" y="50" width="20" height="20" fill="#1D2320">
    <title>2026-04-07: 0 problem(s)</title>
  </rect>
  <rect x="28" y="72" width="20" height="20" fill="#1D2320">
    <title>2026-04-08: 0 problem(s)</title>
  </rect>
  <rect x="28" y="94" width="20" height="20" fill="#1D2320">
    <title>2026-04-09: 0 problem(s)</title>
  </rect>
  <rect x="28" y="116" width="20" height="20" fill="#1D2320">
    <title>2026-04-10: 0 problem(s)</title>
  </rect>
  <rect x="28" y="138" width="20" height="20" fill="#46CA63">
    <title>2026-04-11: 6 problem(s)</title>
  </rect>
  <rect x="28" y="160" width="20" height="20" fill="#1D2320">
    <title>2026-04-12: 0 problem(s)</title>
  </rect>
  <rect x="50" y="28" width="20" height="20" fill="#1D2320">
    <title>2026-04-13: 0 problem(s)</title>
  </rect>
  <rect x="50" y="50" width="20" height="20" fill="#223400">
    <title>2026-04-14: 1 problem(s)</title>
  </rect>
  <rect x="50" y="72" width="20" height="20" fill="#223400">
    <title>2026-04-15: 1 problem(s)</title>
  </rect>
  <rect x="50" y="94" width="20" height="20" fill="#1D2320">
    <title>2026-04-16: 0 problem(s)</title>
  </rect>
  <rect x="50" y="116" width="20" height="20" fill="#1D2320">
    <title>2026-04-17: 0 problem(s)</title>
  </rect>
  <rect x="50" y="138" width="20" height="20" fill="#3BCB58">
    <title>2026-04-18: 5 problem(s)</title>
  </rect>
  <rect x="50" y="160" width="20" height="20" fill="#1D2320">
    <title>2026-04-19: 0 problem(s)</title>
  </rect>
  <rect x="72" y="28" width="20" height="20" fill="#1D2320">
    <title>2026-04-20: 0 problem(s)</title>
  </rect>
  <rect x="72" y="50" width="20" height="20" fill="#1D2320">
    <title>2026-04-21: 0 problem(s)</title>
  </rect>
  <rect x="72" y="72" width="20" height="20" fill="#1D2320">
    <title>2026-04-22: 0 problem(s)</title>
  </rect>
  <rect x="72" y="94" width="20" height="20" fill="#1D2320">
    <title>2026-04-23: 0 problem(s)</title>
  </rect>
  <rect x="72" y="116" width="20" height="20" fill="#1D2320">
    <title>2026-04-24: 0 problem(s)</title>
  </rect>
  <rect x="72" y="138" width="20" height="20" fill="#1C9434">
    <title>2026-04-25: 4 problem(s)</title>
  </rect>
  <rect x="72" y="160" width="20" height="20" fill="#223400">
    <title>2026-04-26: 1 problem(s)</title>
  </rect>
  <rect x="94" y="28" width="20" height="20" fill="#1D2320">
    <title>2026-04-27: 0 problem(s)</title>
  </rect>
  <rect x="94" y="50" width="20" height="20" fill="#1D2320">
    <title>2026-04-28: 0 problem(s)</title>
  </rect>
  <rect x="94" y="72" width="20" height="20" fill="#1D2320">
    <title>2026-04-29: 0 problem(s)</title>
  </rect>
  <rect x="94" y="94" width="20" height="20" fill="#1D2320">
    <title>2026-04-30: 0 problem(s)</title>
  </rect>
  <rect x="94" y="116" width="20" height="20" fill="#1D2320">
    <title>2026-05-01: 0 problem(s)</title>
  </rect>
  <rect x="94" y="138" width="20" height="20" fill="#3BCB58">
    <title>2026-05-02: 5 problem(s)</title>
  </rect>
  <rect x="94" y="160" width="20" height="20" fill="#1D2320">
    <title>2026-05-03: 0 problem(s)</title>
  </rect>
  <rect x="116" y="28" width="20" height="20" fill="#1D2320">
    <title>2026-05-04: 0 problem(s)</title>
  </rect>
  <rect x="116" y="50" width="20" height="20" fill="#1D2320">
    <title>2026-05-05: 0 problem(s)</title>
  </rect>
  <rect x="116" y="72" width="20" height="20" fill="#1D2320">
    <title>2026-05-06: 0 problem(s)</title>
  </rect>
  <rect x="116" y="94" width="20" height="20" fill="#1D2320">
    <title>2026-05-07: 0 problem(s)</title>
  </rect>
  <rect x="116" y="116" width="20" height="20" fill="#1D2320">
    <title>2026-05-08: 0 problem(s)</title>
  </rect>
  <rect x="116" y="138" width="20" height="20" fill="#1D2320">
    <title>2026-05-09: 0 problem(s)</title>
  </rect>
  <rect x="116" y="160" width="20" height="20" fill="#1D2320">
    <title>2026-05-10: 0 problem(s)</title>
  </rect>
  <rect x="138" y="28" width="20" height="20" fill="#1D2320">
    <title>2026-05-11: 0 problem(s)</title>
  </rect>
  <rect x="138" y="50" width="20" height="20" fill="#1D2320">
    <title>2026-05-12: 0 problem(s)</title>
  </rect>
  <rect x="138" y="72" width="20" height="20" fill="#1D2320">
    <title>2026-05-13: 0 problem(s)</title>
  </rect>
  <rect x="138" y="94" width="20" height="20" fill="#1D2320">
    <title>2026-05-14: 0 problem(s)</title>
  </rect>
  <rect x="138" y="116" width="20" height="20" fill="#1D2320">
    <title>2026-05-15: 0 problem(s)</title>
  </rect>
  <rect x="138" y="138" width="20" height="20" fill="#3BCB58">
    <title>2026-05-16: 5 problem(s)</title>
  </rect>
  <rect x="138" y="160" width="20" height="20" fill="#1D2320">
    <title>2026-05-17: 0 problem(s)</title>
  </rect>
  <rect x="160" y="28" width="20" height="20" fill="#1D2320">
    <title>2026-05-18: 0 problem(s)</title>
  </rect>
  <rect x="160" y="50" width="20" height="20" fill="#223400">
    <title>2026-05-19: 1 problem(s)</title>
  </rect>
  <rect x="160" y="72" width="20" height="20" fill="#13490b">
    <title>2026-05-20: 2 problem(s)</title>
  </rect>
  <rect x="160" y="94" width="20" height="20" fill="#223400">
    <title>2026-05-21: 1 problem(s)</title>
  </rect>
  <rect x="160" y="116" width="20" height="20" fill="#1D2320">
    <title>2026-05-22: 0 problem(s)</title>
  </rect>
  <rect x="160" y="138" width="20" height="20" fill="#FFFFFF">
    <title>2026-05-23: 10 problem(s)</title>
  </rect>
  <rect x="160" y="160" width="20" height="20" fill="#13490b">
    <title>2026-05-24: 2 problem(s)</title>
  </rect>
  <rect x="182" y="28" width="20" height="20" fill="#1D2320">
    <title>2026-05-25: 0 problem(s)</title>
  </rect>
  <rect x="182" y="50" width="20" height="20" fill="#1D2320">
    <title>2026-05-26: 0 problem(s)</title>
  </rect>
  <rect x="182" y="72" width="20" height="20" fill="#1D2320">
    <title>2026-05-27: 0 problem(s)</title>
  </rect>
  <rect x="182" y="94" width="20" height="20" fill="#223400">
    <title>2026-05-28: 1 problem(s)</title>
  </rect>
  <rect x="182" y="116" width="20" height="20" fill="#1D2320">
    <title>2026-05-29: 0 problem(s)</title>
  </rect>
  <rect x="182" y="138" width="20" height="20" fill="#1D2320">
    <title>2026-05-30: 0 problem(s)</title>
  </rect>
  <rect x="182" y="160" width="20" height="20" fill="#1C9434">
    <title>2026-05-31: 4 problem(s)</title>
  </rect>
  <rect x="204" y="28" width="20" height="20" fill="#1D2320">
    <title>2026-06-01: 0 problem(s)</title>
  </rect>
  <rect x="204" y="50" width="20" height="20" fill="#1D2320">
    <title>2026-06-02: 0 problem(s)</title>
  </rect>
  <rect x="204" y="72" width="20" height="20" fill="#1D2320">
    <title>2026-06-03: 0 problem(s)</title>
  </rect>
  <rect x="204" y="94" width="20" height="20" fill="#1D2320">
    <title>2026-06-04: 0 problem(s)</title>
  </rect>
  <rect x="204" y="116" width="20" height="20" fill="#1D2320">
    <title>2026-06-05: 0 problem(s)</title>
  </rect>
  <rect x="204" y="138" width="20" height="20" fill="#1C9434">
    <title>2026-06-06: 4 problem(s)</title>
  </rect>
  <rect x="204" y="160" width="20" height="20" fill="#1D2320">
    <title>2026-06-07: 0 problem(s)</title>
  </rect>
  <rect x="226" y="28" width="20" height="20" fill="#1D2320">
    <title>2026-06-08: 0 problem(s)</title>
  </rect>
  <rect x="226" y="50" width="20" height="20" fill="#1D2320">
    <title>2026-06-09: 0 problem(s)</title>
  </rect>
  <rect x="226" y="72" width="20" height="20" fill="#116522">
    <title>2026-06-10: 3 problem(s)</title>
  </rect>
  <rect x="226" y="94" width="20" height="20" fill="#1C9434">
    <title>2026-06-11: 4 problem(s)</title>
  </rect>
  <rect x="226" y="116" width="20" height="20" fill="#1C9434">
    <title>2026-06-12: 4 problem(s)</title>
  </rect>
  <rect x="226" y="138" width="20" height="20" fill="#3BCB58">
    <title>2026-06-13: 5 problem(s)</title>
  </rect>
  <rect x="226" y="160" width="20" height="20" fill="#1D2320">
    <title>2026-06-14: 0 problem(s)</title>
  </rect>
  <rect x="248" y="28" width="20" height="20" fill="#1D2320">
    <title>2026-06-15: 0 problem(s)</title>
  </rect>
  <rect x="248" y="50" width="20" height="20" fill="#1D2320">
    <title>2026-06-16: 0 problem(s)</title>
  </rect>
  <rect x="248" y="72" width="20" height="20" fill="#1D2320">
    <title>2026-06-17: 0 problem(s)</title>
  </rect>
  <rect x="248" y="94" width="20" height="20" fill="#1D2320">
    <title>2026-06-18: 0 problem(s)</title>
  </rect>
  <rect x="248" y="116" width="20" height="20" fill="#1D2320">
    <title>2026-06-19: 0 problem(s)</title>
  </rect>
  <rect x="248" y="138" width="20" height="20" fill="#1D2320">
    <title>2026-06-20: 0 problem(s)</title>
  </rect>
  <rect x="248" y="160" width="20" height="20" fill="#1D2320">
    <title>2026-06-21: 0 problem(s)</title>
  </rect>
  <rect x="270" y="28" width="20" height="20" fill="#1D2320">
    <title>2026-06-22: 0 problem(s)</title>
  </rect>
  <rect x="270" y="50" width="20" height="20" fill="#1D2320">
    <title>2026-06-23: 0 problem(s)</title>
  </rect>
  <rect x="270" y="72" width="20" height="20" fill="#1D2320">
    <title>2026-06-24: 0 problem(s)</title>
  </rect>
  <rect x="270" y="94" width="20" height="20" fill="#1D2320">
    <title>2026-06-25: 0 problem(s)</title>
  </rect>
  <rect x="270" y="116" width="20" height="20" fill="#1D2320">
    <title>2026-06-26: 0 problem(s)</title>
  </rect>
  <rect x="270" y="138" width="20" height="20" fill="#1D2320">
    <title>2026-06-27: 0 problem(s)</title>
  </rect>
  <rect x="270" y="160" width="20" height="20" fill="#1D2320">
    <title>2026-06-28: 0 problem(s)</title>
  </rect>
  <rect x="292" y="28" width="20" height="20" fill="#1D2320">
    <title>2026-06-29: 0 problem(s)</title>
  </rect>
  <rect x="292" y="50" width="20" height="20" fill="#1D2320">
    <title>2026-06-30: 0 problem(s)</title>
  </rect>
  <rect x="292" y="72" width="20" height="20" fill="#61CD7F">
    <title>2026-07-01: 7 problem(s)</title>
  </rect>
  <rect x="292" y="94" width="20" height="20" fill="#8CD2A0">
    <title>2026-07-02: 8 problem(s)</title>
  </rect>
  <rect x="292" y="116" width="20" height="20" fill="#1C9434">
    <title>2026-07-03: 4 problem(s)</title>
  </rect>
  <rect x="292" y="138" width="20" height="20" fill="#1C9434">
    <title>2026-07-04: 4 problem(s)</title>
  </rect>
  <rect x="292" y="160" width="20" height="20" fill="#61CD7F">
    <title>2026-07-05: 7 problem(s)</title>
  </rect>
  <rect x="314" y="28" width="20" height="20" fill="#1D2320">
    <title>2026-07-06: 0 problem(s)</title>
  </rect>
  <text x="341" y="91.0" font-size="18" fill="black">Total: 138</text>
</svg>