<svg width="406" height="174" xmlns="http://www.w3.org/2000/svg">
  <text x="0" y="34.0" font-size="10" fill="black">Mon</text>
  <text x="0" y="56.0" font-size="10" fill="black">Tue</text>
  <text x="0" y="78.0" font-size="10" fill="black">Wed</text>
  <text x="0" y="100.0" font-size="10" fill="black">Thu</text>
  <text x="0" y="122.0" font-size="10" fill="black">Fri</text>
  <text x="0" y="144.0" font-size="10" fill="black">Sat</text>
  <text x="0" y="166.0" font-size="10" fill="black">Sun</text>
  <rect x="20" y="42" width="20" height="20" fill="#ebedf0">
    <title>2025-12-16: 0 problem(s)</title>
  </rect>
  <rect x="20" y="64" width="20" height="20" fill="#ebedf0">
    <title>2025-12-17: 0 problem(s)</title>
  </rect>
  <rect x="20" y="86" width="20" height="20" fill="#ebedf0">
    <title>2025-12-18: 0 problem(s)</title>
  </rect>
  <rect x="20" y="108" width="20" height="20" fill="#ebedf0">
    <title>2025-12-19: 0 problem(s)</title>
  </rect>
  <rect x="20" y="130" width="20" height="20" fill="#ebedf0">
    <title>2025-12-20: 0 problem(s)</title>
  </rect>
  <rect x="20" y="152" width="20" height="20" fill="#ebedf0">
    <title>2025-12-21: 0 problem(s)</title>
  </rect>
  <rect x="20" y="20" width="20" height="20" fill="#ebedf0">
    <title>2025-12-22: 0 problem(s)</title>
  </rect>
  <rect x="42" y="42" width="20" height="20" fill="#ebedf0">
    <title>2025-12-23: 0 problem(s)</title>
  </rect>
  <rect x="42" y="64" width="20" height="20" fill="#ebedf0">
    <title>2025-12-24: 0 problem(s)</title>
  </rect>
  <rect x="42" y="86" width="20" height="20" fill="#ebedf0">
    <title>2025-12-25: 0 problem(s)</title>
  </rect>
  <rect x="42" y="108" width="20" height="20" fill="#ebedf0">
    <title>2025-12-26: 0 problem(s)</title>
  </rect>
  <rect x="42" y="130" width="20" height="20" fill="#ebedf0">
    <title>2025-12-27: 0 problem(s)</title>
  </rect>
  <rect x="42" y="152" width="20" height="20" fill="#ebedf0">
    <title>2025-12-28: 0 problem(s)</title>
  </rect>
  <rect x="42" y="20" width="20" height="20" fill="#ebedf0">
    <title>2025-12-29: 0 problem(s)</title>
  </rect>
  <rect x="64" y="42" width="20" height="20" fill="#ebedf0">
    <title>2025-12-30: 0 problem(s)</title>
  </rect>
  <rect x="64" y="64" width="20" height="20" fill="#ebedf0">
    <title>2025-12-31: 0 problem(s)</title>
  </rect>
  <rect x="64" y="86" width="20" height="20" fill="#ebedf0">
    <title>2026-01-01: 0 problem(s)</title>
  </rect>
  <rect x="64" y="108" width="20" height="20" fill="#ebedf0">
    <title>2026-01-02: 0 problem(s)</title>
  </rect>
  <rect x="64" y="130" width="20" height="20" fill="#ebedf0">
    <title>2026-01-03: 0 problem(s)</title>
  </rect>
  <rect x="64" y="152" width="20" height="20" fill="#ebedf0">
    <title>2026-01-04: 0 problem(s)</title>
  </rect>
  <rect x="64" y="20" width="20" height="20" fill="#ebedf0">
    <title>2026-01-05: 0 problem(s)</title>
  </rect>
  <rect x="86" y="42" width="20" height="20" fill="#ebedf0">
    <title>2026-01-06: 0 problem(s)</title>
  </rect>
  <rect x="86" y="64" width="20" height="20" fill="#ebedf0">
    <title>2026-01-07: 0 problem(s)</title>
  </rect>
  <rect x="86" y="86" width="20" height="20" fill="#ebedf0">
    <title>2026-01-08: 0 problem(s)</title>
  </rect>
  <rect x="86" y="108" width="20" height="20" fill="#ebedf0">
    <title>2026-01-09: 0 problem(s)</title>
  </rect>
  <rect x="86" y="130" width="20" height="20" fill="#ebedf0">
    <title>2026-01-10: 0 problem(s)</title>
  </rect>
  <rect x="86" y="152" width="20" height="20" fill="#ebedf0">
    <title>2026-01-11: 0 problem(s)</title>
  </rect>
  <rect x="86" y="20" width="20" height="20" fill="#ebedf0">
    <title>2026-01-12: 0 problem(s)</title>
  </rect>
  <rect x="108" y="42" width="20" height="20" fill="#ebedf0">
    <title>2026-01-13: 0 problem(s)</title>
  </rect>
  <rect x="108" y="64" width="20" height="20" fill="#ebedf0">
    <title>2026-01-14: 0 problem(s)</title>
  </rect>
  <rect x="108" y="86" width="20" height="20" fill="#ebedf0">
    <title>2026-01-15: 0 problem(s)</title>
  </rect>
  <rect x="108" y="108" width="20" height="20" fill="#ebedf0">
    <title>2026-01-16: 0 problem(s)</title>
  </rect>
  <rect x="108" y="130" width="20" height="20" fill="#ebedf0">
    <title>2026-01-17: 0 problem(s)</title>
  </rect>
  <rect x="108" y="152" width="20" height="20" fill="#ebedf0">
    <title>2026-01-18: 0 problem(s)</title>
  </rect>
  <rect x="108" y="20" width="20" height="20" fill="#ebedf0">
    <title>2026-01-19: 0 problem(s)</title>
  </rect>
  <rect x="130" y="42" width="20" height="20" fill="#ebedf0">
    <title>2026-01-20: 0 problem(s)</title>
  </rect>
  <rect x="130" y="64" width="20" height="20" fill="#ebedf0">
    <title>2026-01-21: 0 problem(s)</title>
  </rect>
  <rect x="130" y="86" width="20" height="20" fill="#ebedf0">
    <title>2026-01-22: 0 problem(s)</title>
  </rect>
  <rect x="130" y="108" width="20" height="20" fill="#ebedf0">
    <title>2026-01-23: 0 problem(s)</title>
  </rect>
  <rect x="130" y="130" width="20" height="20" fill="#ebedf0">
    <title>2026-01-24: 0 problem(s)</title>
  </rect>
  <rect x="130" y="152" width="20" height="20" fill="#ebedf0">
    <title>2026-01-25: 0 problem(s)</title>
  </rect>
  <rect x="130" y="20" width="20" height="20" fill="#ebedf0">
    <title>2026-01-26: 0 problem(s)</title>
  </rect>
  <rect x="152" y="42" width="20" height="20" fill="#ebedf0">
    <title>2026-01-27: 0 problem(s)</title>
  </rect>
  <rect x="152" y="64" width="20" height="20" fill="#ebedf0">
    <title>2026-01-28: 0 problem(s)</title>
  </rect>
  <rect x="152" y="86" width="20" height="20" fill="#ebedf0">
    <title>2026-01-29: 0 problem(s)</title>
  </rect>
  <rect x="152" y="108" width="20" height="20" fill="#ebedf0">
    <title>2026-01-30: 0 problem(s)</title>
  </rect>
  <rect x="152" y="130" width="20" height="20" fill="#ebedf0">
    <title>2026-01-31: 0 problem(s)</title>
  </rect>
  <rect x="152" y="152" width="20" height="20" fill="#ebedf0">
    <title>2026-02-01: 0 problem(s)</title>
  </rect>
  <rect x="152" y="20" width="20" height="20" fill="#ebedf0">
    <title>2026-02-02: 0 problem(s)</title>
  </rect>
  <rect x="174" y="42" width="20" height="20" fill="#ebedf0">
    <title>2026-02-03: 0 problem(s)</title>
  </rect>
  <rect x="174" y="64" width="20" height="20" fill="#ebedf0">
    <title>2026-02-04: 0 problem(s)</title>
  </rect>
  <rect x="174" y="86" width="20" height="20" fill="#ebedf0">
    <title>2026-02-05: 0 problem(s)</title>
  </rect>
  <rect x="174" y="108" width="20" height="20" fill="#ebedf0">
    <title>2026-02-06: 0 problem(s)</title>
  </rect>
  <rect x="174" y="130" width="20" height="20" fill="#ebedf0">
    <title>2026-02-07: 0 problem(s)</title>
  </rect>
  <rect x="174" y="152" width="20" height="20" fill="#ebedf0">
    <title>2026-02-08: 0 problem(s)</title>
  </rect>
  <rect x="174" y="20" width="20" height="20" fill="#ebedf0">
    <title>2026-02-09: 0 problem(s)</title>
  </rect>
  <rect x="196" y="42" width="20" height="20" fill="#ebedf0">
    <title>2026-02-10: 0 problem(s)</title>
  </rect>
  <rect x="196" y="64" width="20" height="20" fill="#ebedf0">
    <title>2026-02-11: 0 problem(s)</title>
  </rect>
  <rect x="196" y="86" width="20" height="20" fill="#ebedf0">
    <title>2026-02-12: 0 problem(s)</title>
  </rect>
  <rect x="196" y="108" width="20" height="20" fill="#ebedf0">
    <title>2026-02-13: 0 problem(s)</title>
  </rect>
  <rect x="196" y="130" width="20" height="20" fill="#ebedf0">
    <title>2026-02-14: 0 problem(s)</title>
  </rect>
  <rect x="196" y="152" width="20" height="20" fill="#ebedf0">
    <title>2026-02-15: 0 problem(s)</title>
  </rect>
  <rect x="196" y="20" width="20" height="20" fill="#ebedf0">
    <title>2026-02-16: 0 problem(s)</title>
  </rect>
  <rect x="218" y="42" width="20" height="20" fill="#ebedf0">
    <title>2026-02-17: 0 problem(s)</title>
  </rect>
  <rect x="218" y="64" width="20" height="20" fill="#ebedf0">
    <title>2026-02-18: 0 problem(s)</title>
  </rect>
  <rect x="218" y="86" width="20" height="20" fill="#ebedf0">
    <title>2026-02-19: 0 problem(s)</title>
  </rect>
  <rect x="218" y="108" width="20" height="20" fill="#ebedf0">
    <title>2026-02-20: 0 problem(s)</title>
  </rect>
  <rect x="218" y="130" width="20" height="20" fill="#ebedf0">
    <title>2026-02-21: 0 problem(s)</title>
  </rect>
  <rect x="218" y="152" width="20" height="20" fill="#ebedf0">
    <title>2026-02-22: 0 problem(s)</title>
  </rect>
  <rect x="218" y="20" width="20" height="20" fill="#ebedf0">
    <title>2026-02-23: 0 problem(s)</title>
  </rect>
  <rect x="240" y="42" width="20" height="20" fill="#ebedf0">
    <title>2026-02-24: 0 problem(s)</title>
  </rect>
  <rect x="240" y="64" width="20" height="20" fill="#ebedf0">
    <title>2026-02-25: 0 problem(s)</title>
  </rect>
  <rect x="240" y="86" width="20" height="20" fill="#ebedf0">
    <title>2026-02-26: 0 problem(s)</title>
  </rect>
  <rect x="240" y="108" width="20" height="20" fill="#ebedf0">
    <title>2026-02-27: 0 problem(s)</title>
  </rect>
  <rect x="240" y="130" width="20" height="20" fill="#ebedf0">
    <title>2026-02-28: 0 problem(s)</title>
  </rect>
  <rect x="240" y="152" width="20" height="20" fill="#ebedf0">
    <title>2026-03-01: 0 problem(s)</title>
  </rect>
  <rect x="240" y="20" width="20" height="20" fill="#ebedf0">
    <title>2026-03-02: 0 problem(s)</title>
  </rect>
  <rect x="262" y="42" width="20" height="20" fill="#ebedf0">
    <title>2026-03-03: 0 problem(s)</title>
  </rect>
  <rect x="262" y="64" width="20" height="20" fill="#ebedf0">
    <title>2026-03-04: 0 problem(s)</title>
  </rect>
  <rect x="262" y="86" width="20" height="20" fill="#ebedf0">
    <title>2026-03-05: 0 problem(s)</title>
  </rect>
  <rect x="262" y="108" width="20" height="20" fill="#ebedf0">
    <title>2026-03-06: 0 problem(s)</title>
  </rect>
  <rect x="262" y="130" width="20" height="20" fill="#ebedf0">
    <title>2026-03-07: 0 problem(s)</title>
  </rect>
  <rect x="262" y="152" width="20" height="20" fill="#ebedf0">
    <title>2026-03-08: 0 problem(s)</title>
  </rect>
  <rect x="262" y="20" width="20" height="20" fill="#ebedf0">
    <title>2026-03-09: 0 problem(s)</title>
  </rect>
  <rect x="284" y="42" width="20" height="20" fill="#ebedf0">
    <title>2026-03-10: 0 problem(s)</title>
  </rect>
  <rect x="284" y="64" width="20" height="20" fill="#ebedf0">
    <title>2026-03-11: 0 problem(s)</title>
  </rect>
  <rect x="284" y="86" width="20" height="20" fill="#c6e48b">
    <title>2026-03-12: 1 problem(s)</title>
  </rect>
  <rect x="284" y="108" width="20" height="20" fill="#196127">
    <title>2026-03-13: 4 problem(s)</title>
  </rect>
  <rect x="284" y="130" width="20" height="20" fill="#196127">
    <title>2026-03-14: 6 problem(s)</title>
  </rect>
  <rect x="284" y="152" width="20" height="20" fill="#196127">
    <title>2026-03-15: 5 problem(s)</title>
  </rect>
  <text x="311" y="87.0" font-size="16" fill="black">Total: 16</text>
</svg>