<svg width="456" height="182" xmlns="http://www.w3.org/2000/svg">
  <text x="0" y="42.0" font-size="12" fill="black">Mon</text>
  <text x="0" y="64.0" font-size="12" fill="black">Tue</text>
  <text x="0" y="86.0" font-size="12" fill="black">Wed</text>
  <text x="0" y="108.0" font-size="12" fill="black">Thu</text>
  <text x="0" y="130.0" font-size="12" fill="black">Fri</text>
  <text x="0" y="152.0" font-size="12" fill="black">Sat</text>
  <text x="0" y="174.0" font-size="12" fill="black">Sun</text>
  <rect x="28" y="28" width="20" height="20" fill="#ebedf0">
    <title>2026-01-26: 0 problem(s)</title>
  </rect>
  <rect x="28" y="50" width="20" height="20" fill="#ebedf0">
    <title>2026-01-27: 0 problem(s)</title>
  </rect>
  <rect x="28" y="72" width="20" height="20" fill="#ebedf0">
    <title>2026-01-28: 0 problem(s)</title>
  </rect>
  <rect x="28" y="94" width="20" height="20" fill="#ebedf0">
    <title>2026-01-29: 0 problem(s)</title>
  </rect>
  <rect x="28" y="116" width="20" height="20" fill="#ebedf0">
    <title>2026-01-30: 0 problem(s)</title>
  </rect>
  <rect x="28" y="138" width="20" height="20" fill="#ebedf0">
    <title>2026-01-31: 0 problem(s)</title>
  </rect>
  <rect x="28" y="160" width="20" height="20" fill="#ebedf0">
    <title>2026-02-01: 0 problem(s)</title>
  </rect>
  <rect x="50" y="28" width="20" height="20" fill="#ebedf0">
    <title>2026-02-02: 0 problem(s)</title>
  </rect>
  <rect x="50" y="50" width="20" height="20" fill="#ebedf0">
    <title>2026-02-03: 0 problem(s)</title>
  </rect>
  <rect x="50" y="72" width="20" height="20" fill="#ebedf0">
    <title>2026-02-04: 0 problem(s)</title>
  </rect>
  <rect x="50" y="94" width="20" height="20" fill="#ebedf0">
    <title>2026-02-05: 0 problem(s)</title>
  </rect>
  <rect x="50" y="116" width="20" height="20" fill="#ebedf0">
    <title>2026-02-06: 0 problem(s)</title>
  </rect>
  <rect x="50" y="138" width="20" height="20" fill="#ebedf0">
    <title>2026-02-07: 0 problem(s)</title>
  </rect>
  <rect x="50" y="160" width="20" height="20" fill="#ebedf0">
    <title>2026-02-08: 0 problem(s)</title>
  </rect>
  <rect x="72" y="28" width="20" height="20" fill="#ebedf0">
    <title>2026-02-09: 0 problem(s)</title>
  </rect>
  <rect x="72" y="50" width="20" height="20" fill="#ebedf0">
    <title>2026-02-10: 0 problem(s)</title>
  </rect>
  <rect x="72" y="72" width="20" height="20" fill="#ebedf0">
    <title>2026-02-11: 0 problem(s)</title>
  </rect>
  <rect x="72" y="94" width="20" height="20" fill="#ebedf0">
    <title>2026-02-12: 0 problem(s)</title>
  </rect>
  <rect x="72" y="116" width="20" height="20" fill="#ebedf0">
    <title>2026-02-13: 0 problem(s)</title>
  </rect>
  <rect x="72" y="138" width="20" height="20" fill="#ebedf0">
    <title>2026-02-14: 0 problem(s)</title>
  </rect>
  <rect x="72" y="160" width="20" height="20" fill="#ebedf0">
    <title>2026-02-15: 0 problem(s)</title>
  </rect>
  <rect x="94" y="28" width="20" height="20" fill="#ebedf0">
    <title>2026-02-16: 0 problem(s)</title>
  </rect>
  <rect x="94" y="50" width="20" height="20" fill="#ebedf0">
    <title>2026-02-17: 0 problem(s)</title>
  </rect>
  <rect x="94" y="72" width="20" height="20" fill="#ebedf0">
    <title>2026-02-18: 0 problem(s)</title>
  </rect>
  <rect x="94" y="94" width="20" height="20" fill="#ebedf0">
    <title>2026-02-19: 0 problem(s)</title>
  </rect>
  <rect x="94" y="116" width="20" height="20" fill="#ebedf0">
    <title>2026-02-20: 0 problem(s)</title>
  </rect>
  <rect x="94" y="138" width="20" height="20" fill="#ebedf0">
    <title>2026-02-21: 0 problem(s)</title>
  </rect>
  <rect x="94" y="160" width="20" height="20" fill="#ebedf0">
    <title>2026-02-22: 0 problem(s)</title>
  </rect>
  <rect x="116" y="28" width="20" height="20" fill="#ebedf0">
    <title>2026-02-23: 0 problem(s)</title>
  </rect>
  <rect x="116" y="50" width="20" height="20" fill="#ebedf0">
    <title>2026-02-24: 0 problem(s)</title>
  </rect>
  <rect x="116" y="72" width="20" height="20" fill="#ebedf0">
    <title>2026-02-25: 0 problem(s)</title>
  </rect>
  <rect x="116" y="94" width="20" height="20" fill="#ebedf0">
    <title>2026-02-26: 0 problem(s)</title>
  </rect>
  <rect x="116" y="116" width="20" height="20" fill="#ebedf0">
    <title>2026-02-27: 0 problem(s)</title>
  </rect>
  <rect x="116" y="138" width="20" height="20" fill="#ebedf0">
    <title>2026-02-28: 0 problem(s)</title>
  </rect>
  <rect x="116" y="160" width="20" height="20" fill="#ebedf0">
    <title>2026-03-01: 0 problem(s)</title>
  </rect>
  <rect x="138" y="28" width="20" height="20" fill="#ebedf0">
    <title>2026-03-02: 0 problem(s)</title>
  </rect>
  <rect x="138" y="50" width="20" height="20" fill="#ebedf0">
    <title>2026-03-03: 0 problem(s)</title>
  </rect>
  <rect x="138" y="72" width="20" height="20" fill="#ebedf0">
    <title>2026-03-04: 0 problem(s)</title>
  </rect>
  <rect x="138" y="94" width="20" height="20" fill="#ebedf0">
    <title>2026-03-05: 0 problem(s)</title>
  </rect>
  <rect x="138" y="116" width="20" height="20" fill="#ebedf0">
    <title>2026-03-06: 0 problem(s)</title>
  </rect>
  <rect x="138" y="138" width="20" height="20" fill="#ebedf0">
    <title>2026-03-07: 0 problem(s)</title>
  </rect>
  <rect x="138" y="160" width="20" height="20" fill="#ebedf0">
    <title>2026-03-08: 0 problem(s)</title>
  </rect>
  <rect x="160" y="28" width="20" height="20" fill="#ebedf0">
    <title>2026-03-09: 0 problem(s)</title>
  </rect>
  <rect x="160" y="50" width="20" height="20" fill="#ebedf0">
    <title>2026-03-10: 0 problem(s)</title>
  </rect>
  <rect x="160" y="72" width="20" height="20" fill="#ebedf0">
    <title>2026-03-11: 0 problem(s)</title>
  </rect>
  <rect x="160" y="94" width="20" height="20" fill="#c6e48b">
    <title>2026-03-12: 1 problem(s)</title>
  </rect>
  <rect x="160" y="116" width="20" height="20" fill="#239a3b">
    <title>2026-03-13: 4 problem(s)</title>
  </rect>
  <rect x="160" y="138" width="20" height="20" fill="#196127">
    <title>2026-03-14: 6 problem(s)</title>
  </rect>
  <rect x="160" y="160" width="20" height="20" fill="#239a3b">
    <title>2026-03-15: 5 problem(s)</title>
  </rect>
  <rect x="182" y="28" width="20" height="20" fill="#c6e48b">
    <title>2026-03-16: 1 problem(s)</title>
  </rect>
  <rect x="182" y="50" width="20" height="20" fill="#c6e48b">
    <title>2026-03-17: 1 problem(s)</title>
  </rect>
  <rect x="182" y="72" width="20" height="20" fill="#ebedf0">
    <title>2026-03-18: 0 problem(s)</title>
  </rect>
  <rect x="182" y="94" width="20" height="20" fill="#ebedf0">
    <title>2026-03-19: 0 problem(s)</title>
  </rect>
  <rect x="182" y="116" width="20" height="20" fill="#7bc96f">
    <title>2026-03-20: 2 problem(s)</title>
  </rect>
  <rect x="182" y="138" width="20" height="20" fill="#c6e48b">
    <title>2026-03-21: 1 problem(s)</title>
  </rect>
  <rect x="182" y="160" width="20" height="20" fill="#196127">
    <title>2026-03-22: 6 problem(s)</title>
  </rect>
  <rect x="204" y="28" width="20" height="20" fill="#ebedf0">
    <title>2026-03-23: 0 problem(s)</title>
  </rect>
  <rect x="204" y="50" width="20" height="20" fill="#c6e48b">
    <title>2026-03-24: 1 problem(s)</title>
  </rect>
  <rect x="204" y="72" width="20" height="20" fill="#ebedf0">
    <title>2026-03-25: 0 problem(s)</title>
  </rect>
  <rect x="204" y="94" width="20" height="20" fill="#ebedf0">
    <title>2026-03-26: 0 problem(s)</title>
  </rect>
  <rect x="204" y="116" width="20" height="20" fill="#ebedf0">
    <title>2026-03-27: 0 problem(s)</title>
  </rect>
  <rect x="204" y="138" width="20" height="20" fill="#ebedf0">
    <title>2026-03-28: 0 problem(s)</title>
  </rect>
  <rect x="204" y="160" width="20" height="20" fill="#ebedf0">
    <title>2026-03-29: 0 problem(s)</title>
  </rect>
  <rect x="226" y="28" width="20" height="20" fill="#ebedf0">
    <title>2026-03-30: 0 problem(s)</title>
  </rect>
  <rect x="226" y="50" width="20" height="20" fill="#ebedf0">
    <title>2026-03-31: 0 problem(s)</title>
  </rect>
  <rect x="226" y="72" width="20" height="20" fill="#c6e48b">
    <title>2026-04-01: 1 problem(s)</title>
  </rect>
  <rect x="226" y="94" width="20" height="20" fill="#c6e48b">
    <title>2026-04-02: 1 problem(s)</title>
  </rect>
  <rect x="226" y="116" width="20" height="20" fill="#ebedf0">
    <title>2026-04-03: 0 problem(s)</title>
  </rect>
  <rect x="226" y="138" width="20" height="20" fill="#239a3b">
    <title>2026-04-04: 4 problem(s)</title>
  </rect>
  <rect x="226" y="160" width="20" height="20" fill="#239a3b">
    <title>2026-04-05: 5 problem(s)</title>
  </rect>
  <rect x="248" y="28" width="20" height="20" fill="#ebedf0">
    <title>2026-04-06: 0 problem(s)</title>
  </rect>
  <rect x="248" y="50" width="20" height="20" fill="#ebedf0">
    <title>2026-04-07: 0 problem(s)</title>
  </rect>
  <rect x="248" y="72" width="20" height="20" fill="#ebedf0">
    <title>2026-04-08: 0 problem(s)</title>
  </rect>
  <rect x="248" y="94" width="20" height="20" fill="#ebedf0">
    <title>2026-04-09: 0 problem(s)</title>
  </rect>
  <rect x="248" y="116" width="20" height="20" fill="#ebedf0">
    <title>2026-04-10: 0 problem(s)</title>
  </rect>
  <rect x="248" y="138" width="20" height="20" fill="#196127">
    <title>2026-04-11: 6 problem(s)</title>
  </rect>
  <rect x="248" y="160" width="20" height="20" fill="#ebedf0">
    <title>2026-04-12: 0 problem(s)</title>
  </rect>
  <rect x="270" y="28" width="20" height="20" fill="#ebedf0">
    <title>2026-04-13: 0 problem(s)</title>
  </rect>
  <rect x="270" y="50" width="20" height="20" fill="#c6e48b">
    <title>2026-04-14: 1 problem(s)</title>
  </rect>
  <rect x="270" y="72" width="20" height="20" fill="#c6e48b">
    <title>2026-04-15: 1 problem(s)</title>
  </rect>
  <rect x="270" y="94" width="20" height="20" fill="#ebedf0">
    <title>2026-04-16: 0 problem(s)</title>
  </rect>
  <rect x="270" y="116" width="20" height="20" fill="#ebedf0">
    <title>2026-04-17: 0 problem(s)</title>
  </rect>
  <rect x="270" y="138" width="20" height="20" fill="#239a3b">
    <title>2026-04-18: 5 problem(s)</title>
  </rect>
  <rect x="270" y="160" width="20" height="20" fill="#ebedf0">
    <title>2026-04-19: 0 problem(s)</title>
  </rect>
  <rect x="292" y="28" width="20" height="20" fill="#ebedf0">
    <title>2026-04-20: 0 problem(s)</title>
  </rect>
  <rect x="292" y="50" width="20" height="20" fill="#ebedf0">
    <title>2026-04-21: 0 problem(s)</title>
  </rect>
  <rect x="292" y="72" width="20" height="20" fill="#ebedf0">
    <title>2026-04-22: 0 problem(s)</title>
  </rect>
  <rect x="292" y="94" width="20" height="20" fill="#ebedf0">
    <title>2026-04-23: 0 problem(s)</title>
  </rect>
  <rect x="292" y="116" width="20" height="20" fill="#ebedf0">
    <title>2026-04-24: 0 problem(s)</title>
  </rect>
  <rect x="292" y="138" width="20" height="20" fill="#239a3b">
    <title>2026-04-25: 5 problem(s)</title>
  </rect>
  <rect x="292" y="160" width="20" height="20" fill="#ebedf0">
    <title>2026-04-26: 0 problem(s)</title>
  </rect>
  <rect x="314" y="28" width="20" height="20" fill="#ebedf0">
    <title>2026-04-27: 0 problem(s)</title>
  </rect>
  <rect x="314" y="50" width="20" height="20" fill="#ebedf0">
    <title>2026-04-28: 0 problem(s)</title>
  </rect>
  <text x="341" y="91.0" font-size="18" fill="black">Total: 57</text>
</svg>